<?xml version="1.0" encoding="UTF-8"?> <svg xmlns="http://www.w3.org/2000/svg" width="2337" height="486" viewBox="0 0 2337 486" fill="none"> <g filter="url(#filter0_f_127_12)"> <path d="M14.28 176H13.28V177H14.28V176ZM60.18 93.72H59.18V94.72H60.18V93.72ZM60.18 79.95V78.95H59.18V79.95H60.18ZM156.4 79.95V80.95H157.4V79.95H156.4ZM156.4 49.52H157.4V48.52H156.4V49.52ZM14.28 49.52V48.52H13.28V49.52H14.28ZM60.18 145.57H59.18V146.57H60.18V145.57ZM60.18 124.15V123.15H59.18V124.15H60.18ZM14.28 177H114.07V175H14.28V177ZM114.07 177C132.915 177 146.065 172.504 154.513 165.018C162.978 157.518 166.58 147.144 166.58 135.71H164.58C164.58 146.716 161.127 156.487 153.187 163.522C145.23 170.571 132.625 175 114.07 175V177ZM166.58 135.71V133.84H164.58V135.71H166.58ZM166.58 133.84C166.58 122.405 162.978 112.073 154.511 104.615C146.062 97.1729 132.913 92.72 114.07 92.72V94.72C132.627 94.72 145.233 99.1071 153.189 106.115C161.127 113.107 164.58 122.835 164.58 133.84H166.58ZM114.07 92.72H60.18V94.72H114.07V92.72ZM61.18 93.72V79.95H59.18V93.72H61.18ZM60.18 80.95H156.4V78.95H60.18V80.95ZM157.4 79.95V49.52H155.4V79.95H157.4ZM156.4 48.52H14.28V50.52H156.4V48.52ZM13.28 49.52V176H15.28V49.52H13.28ZM61.18 145.57V124.15H59.18V145.57H61.18ZM60.18 125.15H103.02V123.15H60.18V125.15ZM103.02 125.15C107.751 125.15 111.172 126.108 113.383 127.684C115.549 129.229 116.64 131.425 116.64 134.18H118.64C118.64 130.815 117.266 127.996 114.544 126.056C111.868 124.147 107.979 123.15 103.02 123.15V125.15ZM116.64 134.18V135.03H118.64V134.18H116.64ZM116.64 135.03C116.64 138.056 115.494 140.379 113.309 141.98C111.08 143.613 107.664 144.57 103.02 144.57V146.57C107.896 146.57 111.79 145.572 114.491 143.593C117.236 141.581 118.64 138.634 118.64 135.03H116.64ZM103.02 144.57H60.18V146.57H103.02V144.57ZM186.604 49.52V48.52H185.604V49.52H186.604ZM186.604 176H185.604V177H186.604V176ZM314.104 176V177H315.104V176H314.104ZM314.104 145.06H315.104V144.06H314.104V145.06ZM232.334 145.06H231.334V146.06H232.334V145.06ZM232.334 127.72V126.72H231.334V127.72H232.334ZM310.364 127.72V128.72H311.364V127.72H310.364ZM310.364 96.27H311.364V95.27H310.364V96.27ZM232.334 96.27H231.334V97.27H232.334V96.27ZM232.334 80.12V79.12H231.334V80.12H232.334ZM312.914 80.12V81.12H313.914V80.12H312.914ZM312.914 49.52H313.914V48.52H312.914V49.52ZM185.604 49.52V176H187.604V49.52H185.604ZM186.604 177H314.104V175H186.604V177ZM315.104 176V145.06H313.104V176H315.104ZM314.104 144.06H232.334V146.06H314.104V144.06ZM233.334 145.06V127.72H231.334V145.06H233.334ZM232.334 128.72H310.364V126.72H232.334V128.72ZM311.364 127.72V96.27H309.364V127.72H311.364ZM310.364 95.27H232.334V97.27H310.364V95.27ZM233.334 96.27V80.12H231.334V96.27H233.334ZM232.334 81.12H312.914V79.12H232.334V81.12ZM313.914 80.12V49.52H311.914V80.12H313.914ZM312.914 48.52H186.604V50.52H312.914V48.52ZM466.321 108.68L466.051 107.717L466.125 109.661L466.321 108.68ZM334.231 93.55H333.231V94.55H334.231V93.55ZM382.511 93.55V94.55H383.471L383.51 93.59L382.511 93.55ZM393.221 97.12V96.12H392.221V97.12H393.221ZM393.221 125.51H392.221V126.51H393.221V125.51ZM381.491 129.93H382.491V128.93H381.491V129.93ZM333.211 129.93V128.93H332.211V129.93H333.211ZM496.221 137.92C496.221 128.752 492.239 121.857 486.523 116.932C480.833 112.03 473.434 109.083 466.517 107.699L466.125 109.661C472.808 110.997 479.858 113.83 485.218 118.448C490.552 123.043 494.221 129.408 494.221 137.92H496.221ZM466.59 109.643C473.028 107.84 479.162 105.234 483.691 100.926C488.258 96.5821 491.121 90.5772 491.121 82.16H489.121C489.121 90.0628 486.459 95.5329 482.313 99.4767C478.13 103.456 472.363 105.95 466.051 107.717L466.59 109.643ZM491.121 82.16V80.97H489.121V82.16H491.121ZM491.121 80.97C491.121 69.8304 484.305 61.2957 471.945 55.603C459.621 49.9265 441.646 46.99 418.891 46.99V48.99C441.525 48.99 459.165 51.9185 471.109 57.4195C483.017 62.9043 489.121 70.8596 489.121 80.97H491.121ZM418.891 46.99H413.451V48.99H418.891V46.99ZM413.451 46.99C390.946 46.99 370.961 50.097 356.564 57.2738C342.109 64.48 333.231 75.8351 333.231 92.19H335.231C335.231 76.7548 343.522 66.01 357.457 59.0637C371.45 52.088 391.075 48.99 413.451 48.99V46.99ZM333.231 92.19V93.55H335.231V92.19H333.231ZM334.231 94.55H382.511V92.55H334.231V94.55ZM383.51 93.59C383.63 90.5887 384.515 88.155 386.019 86.1725C387.531 84.1807 389.71 82.5892 392.5 81.353C398.105 78.8686 406.008 77.89 415.321 77.89V75.89C405.933 75.89 397.687 76.8664 391.689 79.5245C388.677 80.8596 386.192 82.6362 384.426 84.9634C382.653 87.3 381.646 90.1363 381.511 93.51L383.51 93.59ZM415.321 77.89C425.58 77.89 432.112 78.9139 436.049 80.711C437.998 81.6003 439.262 82.6573 440.045 83.8288C440.825 84.9953 441.181 86.3536 441.181 87.94H443.181C443.181 86.0414 442.75 84.2759 441.708 82.7171C440.669 81.1634 439.075 79.8935 436.88 78.8915C432.529 76.9061 425.631 75.89 415.321 75.89V77.89ZM441.181 87.94C441.181 89.5974 440.779 90.8692 440.053 91.8718C439.321 92.8824 438.199 93.7028 436.619 94.3448C433.417 95.6459 428.577 96.12 422.121 96.12V98.12C428.585 98.12 433.775 97.6591 437.372 96.1977C439.192 95.4584 440.662 94.4407 441.673 93.0447C442.69 91.6408 443.181 89.9376 443.181 87.94H441.181ZM422.121 96.12H393.221V98.12H422.121V96.12ZM392.221 97.12V125.51H394.221V97.12H392.221ZM393.221 126.51H424.841V124.51H393.221V126.51ZM424.841 126.51C432.041 126.51 437.516 127.194 441.16 128.805C442.965 129.602 444.273 130.607 445.133 131.824C445.988 133.034 446.451 134.525 446.451 136.39H448.451C448.451 134.175 447.894 132.266 446.767 130.671C445.645 129.083 444.01 127.878 441.969 126.975C437.921 125.186 432.09 124.51 424.841 124.51V126.51ZM446.451 136.39C446.451 138.259 445.903 139.854 444.82 141.223C443.725 142.606 442.04 143.81 439.69 144.797C434.968 146.78 427.777 147.8 418.041 147.8V149.8C427.855 149.8 435.369 148.78 440.464 146.641C443.022 145.567 445.024 144.188 446.389 142.464C447.765 140.724 448.451 138.686 448.451 136.39H446.451ZM418.041 147.8C405.57 147.8 396.633 146.52 390.84 143.634C387.967 142.202 385.899 140.391 384.541 138.167C383.182 135.941 382.491 133.23 382.491 129.93H380.491C380.491 133.515 381.244 136.605 382.834 139.209C384.424 141.814 386.808 143.859 389.948 145.424C396.183 148.53 405.522 149.8 418.041 149.8V147.8ZM381.491 128.93H333.211V130.93H381.491V128.93ZM332.211 129.93V130.95H334.211V129.93H332.211ZM332.211 130.95C332.211 139.838 334.446 147.344 338.573 153.588C342.696 159.826 348.67 164.749 356.066 168.539C370.831 176.105 391.377 179.21 414.641 179.21V177.21C391.494 177.21 371.325 174.11 356.978 166.759C349.817 163.09 344.136 158.376 340.242 152.485C336.352 146.601 334.211 139.487 334.211 130.95H332.211ZM414.641 179.21H418.721V177.21H414.641V179.21ZM418.721 179.21C442.571 179.21 461.874 176.319 475.25 169.954C481.951 166.766 487.202 162.688 490.778 157.63C494.36 152.563 496.221 146.567 496.221 139.62H494.221C494.221 146.188 492.469 151.774 489.145 156.476C485.814 161.187 480.865 165.068 474.391 168.148C461.417 174.321 442.47 177.21 418.721 177.21V179.21ZM496.221 139.62V137.92H494.221V139.62H496.221ZM568.108 176H567.108V177H568.108V176ZM696.288 105.96L696.147 104.97L696.147 106.95L696.288 105.96ZM568.108 49.52V48.52H567.108V49.52H568.108ZM614.008 97.46H613.008V98.46H614.008V97.46ZM614.008 79.1V78.1H613.008V79.1H614.008ZM614.008 145.06H613.008V146.06H614.008V145.06ZM614.008 124.83V123.83H613.008V124.83H614.008ZM568.108 177H673.678V175H568.108V177ZM673.678 177C694.437 177 708.219 172.904 716.825 166.007C725.475 159.073 728.738 149.439 728.738 138.77H726.738C726.738 149.011 723.627 157.992 715.574 164.446C707.477 170.936 694.229 175 673.678 175V177ZM728.738 138.77V137.07H726.738V138.77H728.738ZM728.738 137.07C728.738 125.86 723.988 118.266 717.534 113.266C711.122 108.298 703.072 105.919 696.43 104.97L696.147 106.95C702.594 107.871 710.269 110.167 716.309 114.847C722.308 119.494 726.738 126.52 726.738 137.07H728.738ZM696.43 106.95C701.339 106.249 707.642 104.02 712.74 99.7571C717.865 95.471 721.768 89.125 721.768 80.29H719.768C719.768 88.455 716.191 94.264 711.457 98.2229C706.694 102.205 700.757 104.311 696.147 104.97L696.43 106.95ZM721.768 80.29V79.1H719.768V80.29H721.768ZM721.768 79.1C721.768 70.9378 718.9 63.2188 711.314 57.5787C703.778 51.9769 691.713 48.52 673.508 48.52V50.52C691.513 50.52 703.078 53.9481 710.12 59.1838C717.111 64.3812 719.768 71.4522 719.768 79.1H721.768ZM673.508 48.52H568.108V50.52H673.508V48.52ZM567.108 49.52V176H569.108V49.52H567.108ZM660.758 80.1C665.425 80.1 668.344 80.9808 670.085 82.3507C671.773 83.6802 672.508 85.5983 672.508 88.11H674.508C674.508 85.1817 673.628 82.5948 671.322 80.7793C669.067 79.0042 665.611 78.1 660.758 78.1V80.1ZM672.508 88.11V88.45H674.508V88.11H672.508ZM672.508 88.45C672.508 90.8839 671.811 92.8045 670.139 94.1528C668.421 95.5385 665.505 96.46 660.758 96.46V98.46C665.701 98.46 669.16 97.5115 671.395 95.7097C673.675 93.8705 674.508 91.286 674.508 88.45H672.508ZM660.758 96.46H614.008V98.46H660.758V96.46ZM615.008 97.46V79.1H613.008V97.46H615.008ZM614.008 80.1H660.758V78.1H614.008V80.1ZM664.158 125.83C670.201 125.83 673.476 126.93 675.243 128.421C676.956 129.866 677.438 131.843 677.438 134.18H679.438C679.438 131.587 678.9 128.889 676.533 126.892C674.22 124.94 670.355 123.83 664.158 123.83V125.83ZM677.438 134.18V134.86H679.438V134.18H677.438ZM677.438 134.86C677.438 137.111 676.956 139.337 675.196 141.023C673.422 142.724 670.156 144.06 664.158 144.06V146.06C670.4 146.06 674.275 144.676 676.58 142.467C678.901 140.243 679.438 137.369 679.438 134.86H677.438ZM664.158 144.06H614.008V146.06H664.158V144.06ZM615.008 145.06V124.83H613.008V145.06H615.008ZM614.008 125.83H664.158V123.83H614.008V125.83ZM849.337 176H848.337V177H849.337V176ZM895.237 176V177H896.237V176H895.237ZM895.237 49.52H896.237V48.52H895.237V49.52ZM761.787 49.52V48.52H760.787V49.52H761.787ZM757.537 130.44L756.628 130.023L756.628 130.024L757.537 130.44ZM739.687 140.13V139.13H738.687V140.13H739.687ZM739.687 176H738.687V177H739.687V176ZM798.677 151.01L799.606 151.38L799.61 151.371L798.677 151.01ZM805.647 81.48V80.48H804.647V81.48H805.647ZM849.337 81.48H850.337V80.48H849.337V81.48ZM849.337 177H895.237V175H849.337V177ZM896.237 176V49.52H894.237V176H896.237ZM895.237 48.52H761.787V50.52H895.237V48.52ZM760.787 49.52C760.787 79.618 760.659 97.7799 760.066 109.437C759.472 121.103 758.414 126.126 756.628 130.023L758.446 130.857C760.4 126.594 761.467 121.247 762.063 109.538C762.66 97.8201 762.787 79.602 762.787 49.52H760.787ZM756.628 130.024C755.319 132.887 753.636 135.144 751.382 136.692C749.135 138.236 746.24 139.13 742.407 139.13V141.13C746.565 141.13 749.874 140.154 752.515 138.34C755.149 136.531 757.035 133.943 758.447 130.856L756.628 130.024ZM742.407 139.13H739.687V141.13H742.407V139.13ZM738.687 140.13V176H740.687V140.13H738.687ZM739.687 177H754.137V175H739.687V177ZM754.137 177C767.334 177 777.097 174.688 784.383 170.29C791.688 165.881 796.401 159.437 799.606 151.38L797.748 150.64C794.664 158.393 790.197 164.444 783.349 168.578C776.483 172.722 767.12 175 754.137 175V177ZM799.61 151.371C804.617 138.422 806.647 116.309 806.647 81.48H804.647C804.647 116.351 802.598 138.098 797.745 150.649L799.61 151.371ZM805.647 82.48H849.337V80.48H805.647V82.48ZM848.337 81.48V176H850.337V81.48H848.337ZM999.7 46.31C965.949 46.31 945.294 55.4132 933.085 68.0129C920.885 80.6034 917.27 96.5285 917.27 109.87H919.27C919.27 96.8615 922.794 81.5066 934.522 69.4046C946.24 57.3118 966.3 48.31 999.7 48.31V46.31ZM917.27 109.87V114.97H919.27V109.87H917.27ZM917.27 114.97C917.27 128.056 920.842 144.146 933.014 156.968C945.2 169.804 965.855 179.21 999.7 179.21V177.21C966.224 177.21 946.165 167.916 934.465 155.592C922.752 143.254 919.27 127.724 919.27 114.97H917.27ZM999.7 179.21H1007.35V177.21H999.7V179.21ZM1007.35 179.21C1041.36 179.21 1062.02 169.805 1074.16 156.967C1086.29 144.143 1089.78 128.051 1089.78 114.97H1087.78C1087.78 127.729 1084.38 143.257 1072.71 155.593C1061.05 167.915 1041 177.21 1007.35 177.21V179.21ZM1089.78 114.97V109.87H1087.78V114.97H1089.78ZM1089.78 109.87C1089.78 96.6172 1086.25 80.6917 1074.09 68.0785C1061.93 55.4557 1041.27 46.31 1007.35 46.31V48.31C1040.92 48.31 1060.98 57.3543 1072.65 69.4665C1084.34 81.5883 1087.78 96.9428 1087.78 109.87H1089.78ZM1007.35 46.31H999.7V48.31H1007.35V46.31ZM1039.84 113.1C1039.84 119.093 1038.51 126.378 1033.4 132.158C1028.31 137.914 1019.32 142.36 1003.61 142.36V144.36C1019.69 144.36 1029.32 139.796 1034.9 133.482C1040.45 127.192 1041.84 119.347 1041.84 113.1H1039.84ZM1003.61 142.36C987.904 142.36 978.866 137.914 973.735 132.155C968.584 126.373 967.21 119.088 967.21 113.1H965.21C965.21 119.352 966.64 127.197 972.242 133.485C977.863 139.796 987.525 144.36 1003.61 144.36V142.36ZM967.21 113.1V111.23H965.21V113.1H967.21ZM967.21 111.23C967.21 105.233 968.503 98.127 973.581 92.5213C978.642 86.9335 987.635 82.65 1003.44 82.65V80.65C987.284 80.65 977.662 85.0365 972.098 91.1787C966.551 97.303 965.21 104.987 965.21 111.23H967.21ZM1003.44 82.65C1019.24 82.65 1028.28 86.9335 1033.39 92.5243C1038.51 98.1318 1039.84 105.238 1039.84 111.23H1041.84C1041.84 104.982 1040.45 97.2982 1034.86 91.1757C1029.26 85.0365 1019.6 80.65 1003.44 80.65V82.65ZM1039.84 111.23V113.1H1041.84V111.23H1039.84ZM1188.87 176H1187.87V177H1188.87V176ZM1234.6 176V177H1235.6V176H1234.6ZM1234.6 121.77L1235.35 121.11L1233.6 119.115V121.77H1234.6ZM1282.2 176L1281.45 176.66L1281.75 177H1282.2V176ZM1339.15 176V177H1341.38L1339.9 175.334L1339.15 176ZM1277.27 106.64L1276.57 105.93L1275.89 106.598L1276.53 107.306L1277.27 106.64ZM1334.9 49.52L1335.61 50.2302L1337.33 48.52H1334.9V49.52ZM1281.86 49.52V48.52H1281.45L1281.16 48.8091L1281.86 49.52ZM1234.6 96.27H1233.6V98.6658L1235.31 96.9809L1234.6 96.27ZM1234.6 49.52H1235.6V48.52H1234.6V49.52ZM1188.87 49.52V48.52H1187.87V49.52H1188.87ZM1188.87 96.27L1188.17 96.9809L1189.87 98.6658V96.27H1188.87ZM1141.61 49.52L1142.32 48.8091L1142.02 48.52H1141.61V49.52ZM1087.72 49.52V48.52H1085.29L1087.02 50.2302L1087.72 49.52ZM1146.71 108L1147.46 108.668L1148.09 107.96L1147.42 107.29L1146.71 108ZM1085.68 176L1084.94 175.332L1083.44 177H1085.68V176ZM1141.27 176V177H1141.72L1142.02 176.661L1141.27 176ZM1188.87 121.94H1189.87V119.291L1188.12 121.279L1188.87 121.94ZM1188.87 177H1234.6V175H1188.87V177ZM1235.6 176V121.77H1233.6V176H1235.6ZM1233.85 122.43L1281.45 176.66L1282.95 175.34L1235.35 121.11L1233.85 122.43ZM1282.2 177H1339.15V175H1282.2V177ZM1339.9 175.334L1278.02 105.974L1276.53 107.306L1338.41 176.666L1339.9 175.334ZM1277.98 107.35L1335.61 50.2302L1334.2 48.8098L1276.57 105.93L1277.98 107.35ZM1334.9 48.52H1281.86V50.52H1334.9V48.52ZM1281.16 48.8091L1233.9 95.5591L1235.31 96.9809L1282.57 50.2309L1281.16 48.8091ZM1235.6 96.27V49.52H1233.6V96.27H1235.6ZM1234.6 48.52H1188.87V50.52H1234.6V48.52ZM1187.87 49.52V96.27H1189.87V49.52H1187.87ZM1189.58 95.5591L1142.32 48.8091L1140.91 50.2309L1188.17 96.9809L1189.58 95.5591ZM1141.61 48.52H1087.72V50.52H1141.61V48.52ZM1087.02 50.2302L1146.01 108.71L1147.42 107.29L1088.43 48.8098L1087.02 50.2302ZM1145.97 107.332L1084.94 175.332L1086.43 176.668L1147.46 108.668L1145.97 107.332ZM1085.68 177H1141.27V175H1085.68V177ZM1142.02 176.661L1189.62 122.601L1188.12 121.279L1140.52 175.339L1142.02 176.661ZM1187.87 121.94V176H1189.87V121.94H1187.87ZM1350.71 49.52V48.52H1349.71V49.52H1350.71ZM1350.71 176H1349.71V177H1350.71V176ZM1478.21 176V177H1479.21V176H1478.21ZM1478.21 145.06H1479.21V144.06H1478.21V145.06ZM1396.44 145.06H1395.44V146.06H1396.44V145.06ZM1396.44 127.72V126.72H1395.44V127.72H1396.44ZM1474.47 127.72V128.72H1475.47V127.72H1474.47ZM1474.47 96.27H1475.47V95.27H1474.47V96.27ZM1396.44 96.27H1395.44V97.27H1396.44V96.27ZM1396.44 80.12V79.12H1395.44V80.12H1396.44ZM1477.02 80.12V81.12H1478.02V80.12H1477.02ZM1477.02 49.52H1478.02V48.52H1477.02V49.52ZM1349.71 49.52V176H1351.71V49.52H1349.71ZM1350.71 177H1478.21V175H1350.71V177ZM1479.21 176V145.06H1477.21V176H1479.21ZM1478.21 144.06H1396.44V146.06H1478.21V144.06ZM1397.44 145.06V127.72H1395.44V145.06H1397.44ZM1396.44 128.72H1474.47V126.72H1396.44V128.72ZM1475.47 127.72V96.27H1473.47V127.72H1475.47ZM1474.47 95.27H1396.44V97.27H1474.47V95.27ZM1397.44 96.27V80.12H1395.44V96.27H1397.44ZM1396.44 81.12H1477.02V79.12H1396.44V81.12ZM1478.02 80.12V49.52H1476.02V80.12H1478.02ZM1477.02 48.52H1350.71V50.52H1477.02V48.52ZM1503.77 176H1502.77V177H1503.77V176ZM1549.67 176V177H1550.67V176H1549.67ZM1549.67 128.06V127.06H1548.67V128.06H1549.67ZM1613.76 128.06H1614.76V127.06H1613.76V128.06ZM1613.76 176H1612.76V177H1613.76V176ZM1659.49 176V177H1660.49V176H1659.49ZM1659.49 49.52H1660.49V48.52H1659.49V49.52ZM1613.76 49.52V48.52H1612.76V49.52H1613.76ZM1613.76 94.06V95.06H1614.76V94.06H1613.76ZM1549.67 94.06H1548.67V95.06H1549.67V94.06ZM1549.67 49.52H1550.67V48.52H1549.67V49.52ZM1503.77 49.52V48.52H1502.77V49.52H1503.77ZM1503.77 177H1549.67V175H1503.77V177ZM1550.67 176V128.06H1548.67V176H1550.67ZM1549.67 129.06H1613.76V127.06H1549.67V129.06ZM1612.76 128.06V176H1614.76V128.06H1612.76ZM1613.76 177H1659.49V175H1613.76V177ZM1660.49 176V49.52H1658.49V176H1660.49ZM1659.49 48.52H1613.76V50.52H1659.49V48.52ZM1612.76 49.52V94.06H1614.76V49.52H1612.76ZM1613.76 93.06H1549.67V95.06H1613.76V93.06ZM1550.67 94.06V49.52H1548.67V94.06H1550.67ZM1549.67 48.52H1503.77V50.52H1549.67V48.52ZM1502.77 49.52V176H1504.77V49.52H1502.77ZM1797.02 176H1796.02V177H1797.02V176ZM1842.75 176V177H1843.75V176H1842.75ZM1842.75 49.52H1843.75V48.52H1842.75V49.52ZM1797.02 49.52V48.52H1796.55L1796.25 48.883L1797.02 49.52ZM1733.95 125.85H1732.95V128.63L1734.72 126.487L1733.95 125.85ZM1733.95 49.52H1734.95V48.52H1733.95V49.52ZM1688.05 49.52V48.52H1687.05V49.52H1688.05ZM1688.05 176H1687.05V177H1688.05V176ZM1733.95 176V177H1734.42L1734.72 176.637L1733.95 176ZM1797.02 99.67H1798.02V96.8898L1796.25 99.033L1797.02 99.67ZM1797.02 177H1842.75V175H1797.02V177ZM1843.75 176V49.52H1841.75V176H1843.75ZM1842.75 48.52H1797.02V50.52H1842.75V48.52ZM1796.25 48.883L1733.18 125.213L1734.72 126.487L1797.79 50.157L1796.25 48.883ZM1734.95 125.85V49.52H1732.95V125.85H1734.95ZM1733.95 48.52H1688.05V50.52H1733.95V48.52ZM1687.05 49.52V176H1689.05V49.52H1687.05ZM1688.05 177H1733.95V175H1688.05V177ZM1734.72 176.637L1797.79 100.307L1796.25 99.033L1733.18 175.363L1734.72 176.637ZM1796.02 99.67V176H1798.02V99.67H1796.02ZM1980.3 176H1979.3V177H1980.3V176ZM2026.03 176V177H2027.03V176H2026.03ZM2026.03 49.52H2027.03V48.52H2026.03V49.52ZM1980.3 49.52V48.52H1979.83L1979.53 48.883L1980.3 49.52ZM1917.23 125.85H1916.23V128.63L1918 126.487L1917.23 125.85ZM1917.23 49.52H1918.23V48.52H1917.23V49.52ZM1871.33 49.52V48.52H1870.33V49.52H1871.33ZM1871.33 176H1870.33V177H1871.33V176ZM1917.23 176V177H1917.7L1918 176.637L1917.23 176ZM1980.3 99.67H1981.3V96.8898L1979.53 99.033L1980.3 99.67ZM1988.63 10.25H1989.63V9.25H1988.63V10.25ZM1959.73 10.25V9.25H1958.73V10.25H1959.73ZM1938.99 10.25L1939.98 10.1086L1939.86 9.25H1938.99V10.25ZM1909.75 10.25V9.25H1908.75V10.25H1909.75ZM1980.3 177H2026.03V175H1980.3V177ZM2027.03 176V49.52H2025.03V176H2027.03ZM2026.03 48.52H1980.3V50.52H2026.03V48.52ZM1979.53 48.883L1916.46 125.213L1918 126.487L1981.07 50.157L1979.53 48.883ZM1918.23 125.85V49.52H1916.23V125.85H1918.23ZM1917.23 48.52H1871.33V50.52H1917.23V48.52ZM1870.33 49.52V176H1872.33V49.52H1870.33ZM1871.33 177H1917.23V175H1871.33V177ZM1918 176.637L1981.07 100.307L1979.53 99.033L1916.46 175.363L1918 176.637ZM1979.3 99.67V176H1981.3V99.67H1979.3ZM1951.06 42.19C1966.51 42.19 1976.2 37.13 1982.01 30.5692C1987.79 24.0395 1989.63 16.1371 1989.63 10.59H1987.63C1987.63 15.7529 1985.9 23.1505 1980.51 29.2433C1975.14 35.305 1966.04 40.19 1951.06 40.19V42.19ZM1989.63 10.59V10.25H1987.63V10.59H1989.63ZM1988.63 9.25H1959.73V11.25H1988.63V9.25ZM1958.73 10.25C1958.73 11.8752 1958.26 14.0638 1956.9 15.8216C1955.57 17.5342 1953.33 18.94 1949.53 18.94V20.94C1953.9 20.94 1956.75 19.2858 1958.48 17.0459C1960.18 14.8512 1960.73 12.1948 1960.73 10.25H1958.73ZM1949.53 18.94H1949.36V20.94H1949.53V18.94ZM1949.36 18.94C1945.3 18.94 1943.15 17.5269 1941.92 15.8435C1940.64 14.0872 1940.24 11.8916 1939.98 10.1086L1938 10.3914C1938.26 12.1784 1938.7 14.8278 1940.31 17.024C1941.97 19.2931 1944.75 20.94 1949.36 20.94V18.94ZM1938.99 9.25H1909.75V11.25H1938.99V9.25ZM1908.75 10.25V10.59H1910.75V10.25H1908.75ZM1908.75 10.59C1908.75 16.0633 1909.92 23.9847 1915.42 30.5487C1920.95 37.1467 1930.71 42.19 1947.49 42.19V40.19C1931.12 40.19 1922.01 35.2882 1916.96 29.2638C1911.88 23.2053 1910.75 15.8267 1910.75 10.59H1908.75ZM1947.49 42.19H1951.06V40.19H1947.49V42.19Z" fill="white"></path> </g> <path d="M14.28 176H13.28V177H14.28V176ZM60.18 93.72H59.18V94.72H60.18V93.72ZM60.18 79.95V78.95H59.18V79.95H60.18ZM156.4 79.95V80.95H157.4V79.95H156.4ZM156.4 49.52H157.4V48.52H156.4V49.52ZM14.28 49.52V48.52H13.28V49.52H14.28ZM60.18 145.57H59.18V146.57H60.18V145.57ZM60.18 124.15V123.15H59.18V124.15H60.18ZM14.28 177H114.07V175H14.28V177ZM114.07 177C132.915 177 146.065 172.504 154.513 165.018C162.978 157.518 166.58 147.144 166.58 135.71H164.58C164.58 146.716 161.127 156.487 153.187 163.522C145.23 170.571 132.625 175 114.07 175V177ZM166.58 135.71V133.84H164.58V135.71H166.58ZM166.58 133.84C166.58 122.405 162.978 112.073 154.511 104.615C146.062 97.1729 132.913 92.72 114.07 92.72V94.72C132.627 94.72 145.233 99.1071 153.189 106.115C161.127 113.107 164.58 122.835 164.58 133.84H166.58ZM114.07 92.72H60.18V94.72H114.07V92.72ZM61.18 93.72V79.95H59.18V93.72H61.18ZM60.18 80.95H156.4V78.95H60.18V80.95ZM157.4 79.95V49.52H155.4V79.95H157.4ZM156.4 48.52H14.28V50.52H156.4V48.52ZM13.28 49.52V176H15.28V49.52H13.28ZM61.18 145.57V124.15H59.18V145.57H61.18ZM60.18 125.15H103.02V123.15H60.18V125.15ZM103.02 125.15C107.751 125.15 111.172 126.108 113.383 127.684C115.549 129.229 116.64 131.425 116.64 134.18H118.64C118.64 130.815 117.266 127.996 114.544 126.056C111.868 124.147 107.979 123.15 103.02 123.15V125.15ZM116.64 134.18V135.03H118.64V134.18H116.64ZM116.64 135.03C116.64 138.056 115.494 140.379 113.309 141.98C111.08 143.613 107.664 144.57 103.02 144.57V146.57C107.896 146.57 111.79 145.572 114.491 143.593C117.236 141.581 118.64 138.634 118.64 135.03H116.64ZM103.02 144.57H60.18V146.57H103.02V144.57ZM186.604 49.52V48.52H185.604V49.52H186.604ZM186.604 176H185.604V177H186.604V176ZM314.104 176V177H315.104V176H314.104ZM314.104 145.06H315.104V144.06H314.104V145.06ZM232.334 145.06H231.334V146.06H232.334V145.06ZM232.334 127.72V126.72H231.334V127.72H232.334ZM310.364 127.72V128.72H311.364V127.72H310.364ZM310.364 96.27H311.364V95.27H310.364V96.27ZM232.334 96.27H231.334V97.27H232.334V96.27ZM232.334 80.12V79.12H231.334V80.12H232.334ZM312.914 80.12V81.12H313.914V80.12H312.914ZM312.914 49.52H313.914V48.52H312.914V49.52ZM185.604 49.52V176H187.604V49.52H185.604ZM186.604 177H314.104V175H186.604V177ZM315.104 176V145.06H313.104V176H315.104ZM314.104 144.06H232.334V146.06H314.104V144.06ZM233.334 145.06V127.72H231.334V145.06H233.334ZM232.334 128.72H310.364V126.72H232.334V128.72ZM311.364 127.72V96.27H309.364V127.72H311.364ZM310.364 95.27H232.334V97.27H310.364V95.27ZM233.334 96.27V80.12H231.334V96.27H233.334ZM232.334 81.12H312.914V79.12H232.334V81.12ZM313.914 80.12V49.52H311.914V80.12H313.914ZM312.914 48.52H186.604V50.52H312.914V48.52ZM466.321 108.68L466.051 107.717L466.125 109.661L466.321 108.68ZM334.231 93.55H333.231V94.55H334.231V93.55ZM382.511 93.55V94.55H383.471L383.51 93.59L382.511 93.55ZM393.221 97.12V96.12H392.221V97.12H393.221ZM393.221 125.51H392.221V126.51H393.221V125.51ZM381.491 129.93H382.491V128.93H381.491V129.93ZM333.211 129.93V128.93H332.211V129.93H333.211ZM496.221 137.92C496.221 128.752 492.239 121.857 486.523 116.932C480.833 112.03 473.434 109.083 466.517 107.699L466.125 109.661C472.808 110.997 479.858 113.83 485.218 118.448C490.552 123.043 494.221 129.408 494.221 137.92H496.221ZM466.59 109.643C473.028 107.84 479.162 105.234 483.691 100.926C488.258 96.5821 491.121 90.5772 491.121 82.16H489.121C489.121 90.0628 486.459 95.5329 482.313 99.4767C478.13 103.456 472.363 105.95 466.051 107.717L466.59 109.643ZM491.121 82.16V80.97H489.121V82.16H491.121ZM491.121 80.97C491.121 69.8304 484.305 61.2957 471.945 55.603C459.621 49.9265 441.646 46.99 418.891 46.99V48.99C441.525 48.99 459.165 51.9185 471.109 57.4195C483.017 62.9043 489.121 70.8596 489.121 80.97H491.121ZM418.891 46.99H413.451V48.99H418.891V46.99ZM413.451 46.99C390.946 46.99 370.961 50.097 356.564 57.2738C342.109 64.48 333.231 75.8351 333.231 92.19H335.231C335.231 76.7548 343.522 66.01 357.457 59.0637C371.45 52.088 391.075 48.99 413.451 48.99V46.99ZM333.231 92.19V93.55H335.231V92.19H333.231ZM334.231 94.55H382.511V92.55H334.231V94.55ZM383.51 93.59C383.63 90.5887 384.515 88.155 386.019 86.1725C387.531 84.1807 389.71 82.5892 392.5 81.353C398.105 78.8686 406.008 77.89 415.321 77.89V75.89C405.933 75.89 397.687 76.8664 391.689 79.5245C388.677 80.8596 386.192 82.6362 384.426 84.9634C382.653 87.3 381.646 90.1363 381.511 93.51L383.51 93.59ZM415.321 77.89C425.58 77.89 432.112 78.9139 436.049 80.711C437.998 81.6003 439.262 82.6573 440.045 83.8288C440.825 84.9953 441.181 86.3536 441.181 87.94H443.181C443.181 86.0414 442.75 84.2759 441.708 82.7171C440.669 81.1634 439.075 79.8935 436.88 78.8915C432.529 76.9061 425.631 75.89 415.321 75.89V77.89ZM441.181 87.94C441.181 89.5974 440.779 90.8692 440.053 91.8718C439.321 92.8824 438.199 93.7028 436.619 94.3448C433.417 95.6459 428.577 96.12 422.121 96.12V98.12C428.585 98.12 433.775 97.6591 437.372 96.1977C439.192 95.4584 440.662 94.4407 441.673 93.0447C442.69 91.6408 443.181 89.9376 443.181 87.94H441.181ZM422.121 96.12H393.221V98.12H422.121V96.12ZM392.221 97.12V125.51H394.221V97.12H392.221ZM393.221 126.51H424.841V124.51H393.221V126.51ZM424.841 126.51C432.041 126.51 437.516 127.194 441.16 128.805C442.965 129.602 444.273 130.607 445.133 131.824C445.988 133.034 446.451 134.525 446.451 136.39H448.451C448.451 134.175 447.894 132.266 446.767 130.671C445.645 129.083 444.01 127.878 441.969 126.975C437.921 125.186 432.09 124.51 424.841 124.51V126.51ZM446.451 136.39C446.451 138.259 445.903 139.854 444.82 141.223C443.725 142.606 442.04 143.81 439.69 144.797C434.968 146.78 427.777 147.8 418.041 147.8V149.8C427.855 149.8 435.369 148.78 440.464 146.641C443.022 145.567 445.024 144.188 446.389 142.464C447.765 140.724 448.451 138.686 448.451 136.39H446.451ZM418.041 147.8C405.57 147.8 396.633 146.52 390.84 143.634C387.967 142.202 385.899 140.391 384.541 138.167C383.182 135.941 382.491 133.23 382.491 129.93H380.491C380.491 133.515 381.244 136.605 382.834 139.209C384.424 141.814 386.808 143.859 389.948 145.424C396.183 148.53 405.522 149.8 418.041 149.8V147.8ZM381.491 128.93H333.211V130.93H381.491V128.93ZM332.211 129.93V130.95H334.211V129.93H332.211ZM332.211 130.95C332.211 139.838 334.446 147.344 338.573 153.588C342.696 159.826 348.67 164.749 356.066 168.539C370.831 176.105 391.377 179.21 414.641 179.21V177.21C391.494 177.21 371.325 174.11 356.978 166.759C349.817 163.09 344.136 158.376 340.242 152.485C336.352 146.601 334.211 139.487 334.211 130.95H332.211ZM414.641 179.21H418.721V177.21H414.641V179.21ZM418.721 179.21C442.571 179.21 461.874 176.319 475.25 169.954C481.951 166.766 487.202 162.688 490.778 157.63C494.36 152.563 496.221 146.567 496.221 139.62H494.221C494.221 146.188 492.469 151.774 489.145 156.476C485.814 161.187 480.865 165.068 474.391 168.148C461.417 174.321 442.47 177.21 418.721 177.21V179.21ZM496.221 139.62V137.92H494.221V139.62H496.221ZM568.108 176H567.108V177H568.108V176ZM696.288 105.96L696.147 104.97L696.147 106.95L696.288 105.96ZM568.108 49.52V48.52H567.108V49.52H568.108ZM614.008 97.46H613.008V98.46H614.008V97.46ZM614.008 79.1V78.1H613.008V79.1H614.008ZM614.008 145.06H613.008V146.06H614.008V145.06ZM614.008 124.83V123.83H613.008V124.83H614.008ZM568.108 177H673.678V175H568.108V177ZM673.678 177C694.437 177 708.219 172.904 716.825 166.007C725.475 159.073 728.738 149.439 728.738 138.77H726.738C726.738 149.011 723.627 157.992 715.574 164.446C707.477 170.936 694.229 175 673.678 175V177ZM728.738 138.77V137.07H726.738V138.77H728.738ZM728.738 137.07C728.738 125.86 723.988 118.266 717.534 113.266C711.122 108.298 703.072 105.919 696.43 104.97L696.147 106.95C702.594 107.871 710.269 110.167 716.309 114.847C722.308 119.494 726.738 126.52 726.738 137.07H728.738ZM696.43 106.95C701.339 106.249 707.642 104.02 712.74 99.7571C717.865 95.471 721.768 89.125 721.768 80.29H719.768C719.768 88.455 716.191 94.264 711.457 98.2229C706.694 102.205 700.757 104.311 696.147 104.97L696.43 106.95ZM721.768 80.29V79.1H719.768V80.29H721.768ZM721.768 79.1C721.768 70.9378 718.9 63.2188 711.314 57.5787C703.778 51.9769 691.713 48.52 673.508 48.52V50.52C691.513 50.52 703.078 53.9481 710.12 59.1838C717.111 64.3812 719.768 71.4522 719.768 79.1H721.768ZM673.508 48.52H568.108V50.52H673.508V48.52ZM567.108 49.52V176H569.108V49.52H567.108ZM660.758 80.1C665.425 80.1 668.344 80.9808 670.085 82.3507C671.773 83.6802 672.508 85.5983 672.508 88.11H674.508C674.508 85.1817 673.628 82.5948 671.322 80.7793C669.067 79.0042 665.611 78.1 660.758 78.1V80.1ZM672.508 88.11V88.45H674.508V88.11H672.508ZM672.508 88.45C672.508 90.8839 671.811 92.8045 670.139 94.1528C668.421 95.5385 665.505 96.46 660.758 96.46V98.46C665.701 98.46 669.16 97.5115 671.395 95.7097C673.675 93.8705 674.508 91.286 674.508 88.45H672.508ZM660.758 96.46H614.008V98.46H660.758V96.46ZM615.008 97.46V79.1H613.008V97.46H615.008ZM614.008 80.1H660.758V78.1H614.008V80.1ZM664.158 125.83C670.201 125.83 673.476 126.93 675.243 128.421C676.956 129.866 677.438 131.843 677.438 134.18H679.438C679.438 131.587 678.9 128.889 676.533 126.892C674.22 124.94 670.355 123.83 664.158 123.83V125.83ZM677.438 134.18V134.86H679.438V134.18H677.438ZM677.438 134.86C677.438 137.111 676.956 139.337 675.196 141.023C673.422 142.724 670.156 144.06 664.158 144.06V146.06C670.4 146.06 674.275 144.676 676.58 142.467C678.901 140.243 679.438 137.369 679.438 134.86H677.438ZM664.158 144.06H614.008V146.06H664.158V144.06ZM615.008 145.06V124.83H613.008V145.06H615.008ZM614.008 125.83H664.158V123.83H614.008V125.83ZM849.337 176H848.337V177H849.337V176ZM895.237 176V177H896.237V176H895.237ZM895.237 49.52H896.237V48.52H895.237V49.52ZM761.787 49.52V48.52H760.787V49.52H761.787ZM757.537 130.44L756.628 130.023L756.628 130.024L757.537 130.44ZM739.687 140.13V139.13H738.687V140.13H739.687ZM739.687 176H738.687V177H739.687V176ZM798.677 151.01L799.606 151.38L799.61 151.371L798.677 151.01ZM805.647 81.48V80.48H804.647V81.48H805.647ZM849.337 81.48H850.337V80.48H849.337V81.48ZM849.337 177H895.237V175H849.337V177ZM896.237 176V49.52H894.237V176H896.237ZM895.237 48.52H761.787V50.52H895.237V48.52ZM760.787 49.52C760.787 79.618 760.659 97.7799 760.066 109.437C759.472 121.103 758.414 126.126 756.628 130.023L758.446 130.857C760.4 126.594 761.467 121.247 762.063 109.538C762.66 97.8201 762.787 79.602 762.787 49.52H760.787ZM756.628 130.024C755.319 132.887 753.636 135.144 751.382 136.692C749.135 138.236 746.24 139.13 742.407 139.13V141.13C746.565 141.13 749.874 140.154 752.515 138.34C755.149 136.531 757.035 133.943 758.447 130.856L756.628 130.024ZM742.407 139.13H739.687V141.13H742.407V139.13ZM738.687 140.13V176H740.687V140.13H738.687ZM739.687 177H754.137V175H739.687V177ZM754.137 177C767.334 177 777.097 174.688 784.383 170.29C791.688 165.881 796.401 159.437 799.606 151.38L797.748 150.64C794.664 158.393 790.197 164.444 783.349 168.578C776.483 172.722 767.12 175 754.137 175V177ZM799.61 151.371C804.617 138.422 806.647 116.309 806.647 81.48H804.647C804.647 116.351 802.598 138.098 797.745 150.649L799.61 151.371ZM805.647 82.48H849.337V80.48H805.647V82.48ZM848.337 81.48V176H850.337V81.48H848.337ZM999.7 46.31C965.949 46.31 945.294 55.4132 933.085 68.0129C920.885 80.6034 917.27 96.5285 917.27 109.87H919.27C919.27 96.8615 922.794 81.5066 934.522 69.4046C946.24 57.3118 966.3 48.31 999.7 48.31V46.31ZM917.27 109.87V114.97H919.27V109.87H917.27ZM917.27 114.97C917.27 128.056 920.842 144.146 933.014 156.968C945.2 169.804 965.855 179.21 999.7 179.21V177.21C966.224 177.21 946.165 167.916 934.465 155.592C922.752 143.254 919.27 127.724 919.27 114.97H917.27ZM999.7 179.21H1007.35V177.21H999.7V179.21ZM1007.35 179.21C1041.36 179.21 1062.02 169.805 1074.16 156.967C1086.29 144.143 1089.78 128.051 1089.78 114.97H1087.78C1087.78 127.729 1084.38 143.257 1072.71 155.593C1061.05 167.915 1041 177.21 1007.35 177.21V179.21ZM1089.78 114.97V109.87H1087.78V114.97H1089.78ZM1089.78 109.87C1089.78 96.6172 1086.25 80.6917 1074.09 68.0785C1061.93 55.4557 1041.27 46.31 1007.35 46.31V48.31C1040.92 48.31 1060.98 57.3543 1072.65 69.4665C1084.34 81.5883 1087.78 96.9428 1087.78 109.87H1089.78ZM1007.35 46.31H999.7V48.31H1007.35V46.31ZM1039.84 113.1C1039.84 119.093 1038.51 126.378 1033.4 132.158C1028.31 137.914 1019.32 142.36 1003.61 142.36V144.36C1019.69 144.36 1029.32 139.796 1034.9 133.482C1040.45 127.192 1041.84 119.347 1041.84 113.1H1039.84ZM1003.61 142.36C987.904 142.36 978.866 137.914 973.735 132.155C968.584 126.373 967.21 119.088 967.21 113.1H965.21C965.21 119.352 966.64 127.197 972.242 133.485C977.863 139.796 987.525 144.36 1003.61 144.36V142.36ZM967.21 113.1V111.23H965.21V113.1H967.21ZM967.21 111.23C967.21 105.233 968.503 98.127 973.581 92.5213C978.642 86.9335 987.635 82.65 1003.44 82.65V80.65C987.284 80.65 977.662 85.0365 972.098 91.1787C966.551 97.303 965.21 104.987 965.21 111.23H967.21ZM1003.44 82.65C1019.24 82.65 1028.28 86.9335 1033.39 92.5243C1038.51 98.1318 1039.84 105.238 1039.84 111.23H1041.84C1041.84 104.982 1040.45 97.2982 1034.86 91.1757C1029.26 85.0365 1019.6 80.65 1003.44 80.65V82.65ZM1039.84 111.23V113.1H1041.84V111.23H1039.84ZM1188.87 176H1187.87V177H1188.87V176ZM1234.6 176V177H1235.6V176H1234.6ZM1234.6 121.77L1235.35 121.11L1233.6 119.115V121.77H1234.6ZM1282.2 176L1281.45 176.66L1281.75 177H1282.2V176ZM1339.15 176V177H1341.38L1339.9 175.334L1339.15 176ZM1277.27 106.64L1276.57 105.93L1275.89 106.598L1276.53 107.306L1277.27 106.64ZM1334.9 49.52L1335.61 50.2302L1337.33 48.52H1334.9V49.52ZM1281.86 49.52V48.52H1281.45L1281.16 48.8091L1281.86 49.52ZM1234.6 96.27H1233.6V98.6658L1235.31 96.9809L1234.6 96.27ZM1234.6 49.52H1235.6V48.52H1234.6V49.52ZM1188.87 49.52V48.52H1187.87V49.52H1188.87ZM1188.87 96.27L1188.17 96.9809L1189.87 98.6658V96.27H1188.87ZM1141.61 49.52L1142.32 48.8091L1142.02 48.52H1141.61V49.52ZM1087.72 49.52V48.52H1085.29L1087.02 50.2302L1087.72 49.52ZM1146.71 108L1147.46 108.668L1148.09 107.96L1147.42 107.29L1146.71 108ZM1085.68 176L1084.94 175.332L1083.44 177H1085.68V176ZM1141.27 176V177H1141.72L1142.02 176.661L1141.27 176ZM1188.87 121.94H1189.87V119.291L1188.12 121.279L1188.87 121.94ZM1188.87 177H1234.6V175H1188.87V177ZM1235.6 176V121.77H1233.6V176H1235.6ZM1233.85 122.43L1281.45 176.66L1282.95 175.34L1235.35 121.11L1233.85 122.43ZM1282.2 177H1339.15V175H1282.2V177ZM1339.9 175.334L1278.02 105.974L1276.53 107.306L1338.41 176.666L1339.9 175.334ZM1277.98 107.35L1335.61 50.2302L1334.2 48.8098L1276.57 105.93L1277.98 107.35ZM1334.9 48.52H1281.86V50.52H1334.9V48.52ZM1281.16 48.8091L1233.9 95.5591L1235.31 96.9809L1282.57 50.2309L1281.16 48.8091ZM1235.6 96.27V49.52H1233.6V96.27H1235.6ZM1234.6 48.52H1188.87V50.52H1234.6V48.52ZM1187.87 49.52V96.27H1189.87V49.52H1187.87ZM1189.58 95.5591L1142.32 48.8091L1140.91 50.2309L1188.17 96.9809L1189.58 95.5591ZM1141.61 48.52H1087.72V50.52H1141.61V48.52ZM1087.02 50.2302L1146.01 108.71L1147.42 107.29L1088.43 48.8098L1087.02 50.2302ZM1145.97 107.332L1084.94 175.332L1086.43 176.668L1147.46 108.668L1145.97 107.332ZM1085.68 177H1141.27V175H1085.68V177ZM1142.02 176.661L1189.62 122.601L1188.12 121.279L1140.52 175.339L1142.02 176.661ZM1187.87 121.94V176H1189.87V121.94H1187.87ZM1350.71 49.52V48.52H1349.71V49.52H1350.71ZM1350.71 176H1349.71V177H1350.71V176ZM1478.21 176V177H1479.21V176H1478.21ZM1478.21 145.06H1479.21V144.06H1478.21V145.06ZM1396.44 145.06H1395.44V146.06H1396.44V145.06ZM1396.44 127.72V126.72H1395.44V127.72H1396.44ZM1474.47 127.72V128.72H1475.47V127.72H1474.47ZM1474.47 96.27H1475.47V95.27H1474.47V96.27ZM1396.44 96.27H1395.44V97.27H1396.44V96.27ZM1396.44 80.12V79.12H1395.44V80.12H1396.44ZM1477.02 80.12V81.12H1478.02V80.12H1477.02ZM1477.02 49.52H1478.02V48.52H1477.02V49.52ZM1349.71 49.52V176H1351.71V49.52H1349.71ZM1350.71 177H1478.21V175H1350.71V177ZM1479.21 176V145.06H1477.21V176H1479.21ZM1478.21 144.06H1396.44V146.06H1478.21V144.06ZM1397.44 145.06V127.72H1395.44V145.06H1397.44ZM1396.44 128.72H1474.47V126.72H1396.44V128.72ZM1475.47 127.72V96.27H1473.47V127.72H1475.47ZM1474.47 95.27H1396.44V97.27H1474.47V95.27ZM1397.44 96.27V80.12H1395.44V96.27H1397.44ZM1396.44 81.12H1477.02V79.12H1396.44V81.12ZM1478.02 80.12V49.52H1476.02V80.12H1478.02ZM1477.02 48.52H1350.71V50.52H1477.02V48.52ZM1503.77 176H1502.77V177H1503.77V176ZM1549.67 176V177H1550.67V176H1549.67ZM1549.67 128.06V127.06H1548.67V128.06H1549.67ZM1613.76 128.06H1614.76V127.06H1613.76V128.06ZM1613.76 176H1612.76V177H1613.76V176ZM1659.49 176V177H1660.49V176H1659.49ZM1659.49 49.52H1660.49V48.52H1659.49V49.52ZM1613.76 49.52V48.52H1612.76V49.52H1613.76ZM1613.76 94.06V95.06H1614.76V94.06H1613.76ZM1549.67 94.06H1548.67V95.06H1549.67V94.06ZM1549.67 49.52H1550.67V48.52H1549.67V49.52ZM1503.77 49.52V48.52H1502.77V49.52H1503.77ZM1503.77 177H1549.67V175H1503.77V177ZM1550.67 176V128.06H1548.67V176H1550.67ZM1549.67 129.06H1613.76V127.06H1549.67V129.06ZM1612.76 128.06V176H1614.76V128.06H1612.76ZM1613.76 177H1659.49V175H1613.76V177ZM1660.49 176V49.52H1658.49V176H1660.49ZM1659.49 48.52H1613.76V50.52H1659.49V48.52ZM1612.76 49.52V94.06H1614.76V49.52H1612.76ZM1613.76 93.06H1549.67V95.06H1613.76V93.06ZM1550.67 94.06V49.52H1548.67V94.06H1550.67ZM1549.67 48.52H1503.77V50.52H1549.67V48.52ZM1502.77 49.52V176H1504.77V49.52H1502.77ZM1797.02 176H1796.02V177H1797.02V176ZM1842.75 176V177H1843.75V176H1842.75ZM1842.75 49.52H1843.75V48.52H1842.75V49.52ZM1797.02 49.52V48.52H1796.55L1796.25 48.883L1797.02 49.52ZM1733.95 125.85H1732.95V128.63L1734.72 126.487L1733.95 125.85ZM1733.95 49.52H1734.95V48.52H1733.95V49.52ZM1688.05 49.52V48.52H1687.05V49.52H1688.05ZM1688.05 176H1687.05V177H1688.05V176ZM1733.95 176V177H1734.42L1734.72 176.637L1733.95 176ZM1797.02 99.67H1798.02V96.8898L1796.25 99.033L1797.02 99.67ZM1797.02 177H1842.75V175H1797.02V177ZM1843.75 176V49.52H1841.75V176H1843.75ZM1842.75 48.52H1797.02V50.52H1842.75V48.52ZM1796.25 48.883L1733.18 125.213L1734.72 126.487L1797.79 50.157L1796.25 48.883ZM1734.95 125.85V49.52H1732.95V125.85H1734.95ZM1733.95 48.52H1688.05V50.52H1733.95V48.52ZM1687.05 49.52V176H1689.05V49.52H1687.05ZM1688.05 177H1733.95V175H1688.05V177ZM1734.72 176.637L1797.79 100.307L1796.25 99.033L1733.18 175.363L1734.72 176.637ZM1796.02 99.67V176H1798.02V99.67H1796.02ZM1980.3 176H1979.3V177H1980.3V176ZM2026.03 176V177H2027.03V176H2026.03ZM2026.03 49.52H2027.03V48.52H2026.03V49.52ZM1980.3 49.52V48.52H1979.83L1979.53 48.883L1980.3 49.52ZM1917.23 125.85H1916.23V128.63L1918 126.487L1917.23 125.85ZM1917.23 49.52H1918.23V48.52H1917.23V49.52ZM1871.33 49.52V48.52H1870.33V49.52H1871.33ZM1871.33 176H1870.33V177H1871.33V176ZM1917.23 176V177H1917.7L1918 176.637L1917.23 176ZM1980.3 99.67H1981.3V96.8898L1979.53 99.033L1980.3 99.67ZM1988.63 10.25H1989.63V9.25H1988.63V10.25ZM1959.73 10.25V9.25H1958.73V10.25H1959.73ZM1938.99 10.25L1939.98 10.1086L1939.86 9.25H1938.99V10.25ZM1909.75 10.25V9.25H1908.75V10.25H1909.75ZM1980.3 177H2026.03V175H1980.3V177ZM2027.03 176V49.52H2025.03V176H2027.03ZM2026.03 48.52H1980.3V50.52H2026.03V48.52ZM1979.53 48.883L1916.46 125.213L1918 126.487L1981.07 50.157L1979.53 48.883ZM1918.23 125.85V49.52H1916.23V125.85H1918.23ZM1917.23 48.52H1871.33V50.52H1917.23V48.52ZM1870.33 49.52V176H1872.33V49.52H1870.33ZM1871.33 177H1917.23V175H1871.33V177ZM1918 176.637L1981.07 100.307L1979.53 99.033L1916.46 175.363L1918 176.637ZM1979.3 99.67V176H1981.3V99.67H1979.3ZM1951.06 42.19C1966.51 42.19 1976.2 37.13 1982.01 30.5692C1987.79 24.0395 1989.63 16.1371 1989.63 10.59H1987.63C1987.63 15.7529 1985.9 23.1505 1980.51 29.2433C1975.14 35.305 1966.04 40.19 1951.06 40.19V42.19ZM1989.63 10.59V10.25H1987.63V10.59H1989.63ZM1988.63 9.25H1959.73V11.25H1988.63V9.25ZM1958.73 10.25C1958.73 11.8752 1958.26 14.0638 1956.9 15.8216C1955.57 17.5342 1953.33 18.94 1949.53 18.94V20.94C1953.9 20.94 1956.75 19.2858 1958.48 17.0459C1960.18 14.8512 1960.73 12.1948 1960.73 10.25H1958.73ZM1949.53 18.94H1949.36V20.94H1949.53V18.94ZM1949.36 18.94C1945.3 18.94 1943.15 17.5269 1941.92 15.8435C1940.64 14.0872 1940.24 11.8916 1939.98 10.1086L1938 10.3914C1938.26 12.1784 1938.7 14.8278 1940.31 17.024C1941.97 19.2931 1944.75 20.94 1949.36 20.94V18.94ZM1938.99 9.25H1909.75V11.25H1938.99V9.25ZM1908.75 10.25V10.59H1910.75V10.25H1908.75ZM1908.75 10.59C1908.75 16.0633 1909.92 23.9847 1915.42 30.5487C1920.95 37.1467 1930.71 42.19 1947.49 42.19V40.19C1931.12 40.19 1922.01 35.2882 1916.96 29.2638C1911.88 23.2053 1910.75 15.8267 1910.75 10.59H1908.75ZM1947.49 42.19H1951.06V40.19H1947.49V42.19Z" fill="#FF1D77"></path> <defs> <filter id="filter0_f_127_12" x="4.28003" y="0.25" width="2031.75" height="187.96" filterUnits="userSpaceOnUse" color-interpolation-filters="sRGB"> <feFlood flood-opacity="0" result="BackgroundImageFix"></feFlood> <feBlend mode="normal" in="SourceGraphic" in2="BackgroundImageFix" result="shape"></feBlend> <feGaussianBlur stdDeviation="5" result="effect1_foregroundBlur_127_12"></feGaussianBlur> </filter> </defs> </svg> 